<svg xmlns="http://www.w3.org/2000/svg" width="258.26" height="317.254" viewBox="0 0 258.26 317.254">
  <g id="Group_316" data-name="Group 316" transform="translate(-13.372 -12.549)">
    <g id="Group_283" data-name="Group 283" transform="translate(25.291 155.629)" style="mix-blend-mode: normal;isolation: isolate">
      <g id="Group_274" data-name="Group 274" transform="translate(6.832 2.815)" style="mix-blend-mode: multiply;isolation: isolate">
        <path id="Path_32" data-name="Path 32" d="M62.069,250.451H61.025l-.141-1.034c-.469-3.435-.919-6.429-1.317-9.071C57.748,228.238,57,223.226,60.7,217.4c3.814-5.993,9.107-9.764,14.224-13.411,5.4-3.85,10.992-7.831,14.814-14.478,3.671-6.38,3.484-13.43-.488-18.4-4.748-5.938-13.639-7.606-23.791-4.463A75.714,75.714,0,0,0,52.578,172c-8.481,4.311-9.1,3.357-19.413-12.628-1.066-1.652-2.243-3.474-3.547-5.482L29.039,153l.813-.681c21.253-17.807,47.285-23.306,69.639-14.712,16.356,6.287,27.372,18.969,29.47,33.924,2.384,17-7.091,34.493-26.682,49.252-12.731,9.6-12.174,16.136-11.807,20.46.181,2.12.351,4.122-1.1,5.7C86.936,249.6,80.3,250.451,62.069,250.451ZM75.078,162.7c6.73,0,12.406,2.372,16.044,6.921,4.6,5.753,4.866,13.832.694,21.085-4.085,7.1-9.888,11.236-15.5,15.235-5.16,3.675-10.031,7.146-13.594,12.746-3.227,5.07-2.562,9.49-.789,21.3.359,2.381.76,5.049,1.179,8.066,15.834-.031,22.733-.8,24.5-2.724.706-.772.651-1.861.478-3.881-.413-4.85-1.036-12.179,12.751-22.575,18.866-14.214,28.011-30.908,25.752-47.009-1.975-14.08-12.426-26.052-27.958-32.023-21.244-8.168-46-3.065-66.426,13.638q1.616,2.49,2.971,4.595c4.919,7.623,7.629,11.821,9.662,13.212,1.576,1.075,2.851.513,6.656-1.419a77.718,77.718,0,0,1,13.259-5.5A35.041,35.041,0,0,1,75.078,162.7Z" transform="translate(-29.039 -133.627)" fill="#232323"/>
      </g>
      <g id="Group_275" data-name="Group 275" transform="translate(31.836 131.281)" style="mix-blend-mode: multiply;isolation: isolate">
        <path id="Path_33" data-name="Path 33" d="M69.335,278.688c-9.346,0-19.4-5.911-19.4-18.889,0-12.94,10.058-18.835,19.406-18.835,9.7,0,19.517,6.47,19.517,18.835a18.027,18.027,0,0,1-6.146,14.167A20.447,20.447,0,0,1,69.335,278.688Zm0-35.33c-8.194,0-17.012,5.145-17.012,16.441,0,11.333,8.818,16.495,17.011,16.495,8.247,0,17.124-5.162,17.124-16.495C86.46,248.5,77.583,243.359,69.337,243.359Z" transform="translate(-49.931 -240.965)" fill="#232323"/>
      </g>
      <g id="Group_280" data-name="Group 280" style="mix-blend-mode: multiply;isolation: isolate">
        <g id="Group_276" data-name="Group 276" transform="translate(30.685 82.198)">
          <path id="Path_34" data-name="Path 34" d="M58.146,242.564H52.592l-.754-5.5c-.445-3.263-.874-6.127-1.254-8.664l-.053-.345c-1.9-12.667-2.858-19.025,1.887-26.482q.53-.835,1.089-1.616l1.95,1.39q-.522.732-1.02,1.51c-4.264,6.7-3.354,12.765-1.538,24.843l.051.345c.382,2.548.813,5.421,1.26,8.7l.468,3.434h3.467c19.629,0,26.211-.986,29.345-4.4a7.372,7.372,0,0,0,1.931-4.847l2.389.13a9.767,9.767,0,0,1-2.556,6.335C85.48,241.5,79.084,242.564,58.146,242.564Z" transform="translate(-48.969 -199.954)" fill="#232323"/>
        </g>
        <g id="Group_277" data-name="Group 277" transform="translate(51.19 37.05)">
          <path id="Path_35" data-name="Path 35" d="M82.234,176.044l-2.379-.262a10.915,10.915,0,0,0,.066-1.2,9.388,9.388,0,0,0-1.247-4.769c-2.1-3.625-6.725-5.531-12.409-5.142l-.163-2.388c6.651-.456,12.075,1.893,14.643,6.33a11.754,11.754,0,0,1,1.569,5.969A13.319,13.319,0,0,1,82.234,176.044Z" transform="translate(-66.102 -162.231)" fill="#232323"/>
        </g>
        <g id="Group_278" data-name="Group 278">
          <path id="Path_36" data-name="Path 36" d="M47.556,179.861c-6.5,0-9.522-4.687-17.607-17.213l-.066-.1c-1.046-1.622-2.2-3.407-3.476-5.37l-3.077-4.729,4.324-3.623a84.678,84.678,0,0,1,33.192-17.548l.6,2.318a82.3,82.3,0,0,0-32.252,17.065l-2.7,2.261,1.92,2.95c1.278,1.965,2.433,3.754,3.48,5.377l-.938.753,1.005-.65c7.781,12.057,10.4,16.118,15.595,16.118a12.532,12.532,0,0,0,5.477-1.565l1.039,2.157A14.633,14.633,0,0,1,47.556,179.861Z" transform="translate(-23.331 -131.275)" fill="#232323"/>
        </g>
        <g id="Group_279" data-name="Group 279" transform="translate(96.858 36.975)">
          <path id="Path_37" data-name="Path 37" d="M106.094,204.783l-1.835-1.537c8.547-10.209,13.066-21.311,13.066-32.105a39.618,39.618,0,0,0-.918-8.459l2.337-.512a42,42,0,0,1,.974,8.971C119.719,182.5,115.007,194.137,106.094,204.783Z" transform="translate(-104.259 -162.169)" fill="#232323"/>
        </g>
      </g>
      <g id="Group_282" data-name="Group 282" transform="translate(26.667 135.937)" style="mix-blend-mode: multiply;isolation: isolate">
        <g id="Group_281" data-name="Group 281">
          <path id="Path_38" data-name="Path 38" d="M70.3,283.092h-.113c-12.213,0-24.575-8.263-24.575-24.056a25.924,25.924,0,0,1,1.273-8.2l2.272.755a23.522,23.522,0,0,0-1.151,7.442c0,14.222,11.159,21.663,22.181,21.663Zm22.015-12.777-2.134-1.083a22.316,22.316,0,0,0,2.3-10.2,21.284,21.284,0,0,0-3.89-12.776l1.938-1.4a23.619,23.619,0,0,1,4.346,14.18A24.676,24.676,0,0,1,92.314,270.314Z" transform="translate(-45.612 -244.855)" fill="#232323"/>
        </g>
      </g>
    </g>
    <g id="Group_295" data-name="Group 295" transform="translate(198.904 157.043)" style="mix-blend-mode: normal;isolation: isolate">
      <g id="Group_285" data-name="Group 285" transform="translate(6.83 5.148)" style="mix-blend-mode: multiply;isolation: isolate">
        <g id="Group_284" data-name="Group 284">
          <path id="Path_39" data-name="Path 39" d="M144.229,173.707h-1.045l-.142-1.034c-.278-2.039-.545-3.818-.78-5.386-1.1-7.317-1.555-10.347.746-13.96,2.317-3.64,5.5-5.908,8.578-8.1,3.314-2.361,6.443-4.59,8.66-8.447,2.08-3.613,1.984-7.592-.248-10.383-2.692-3.366-7.779-4.294-13.61-2.491a44.484,44.484,0,0,0-7.576,3.146c-5.428,2.76-6.066,1.774-12.162-7.674-.632-.98-1.33-2.062-2.105-3.252l-.578-.889.813-.681c12.761-10.693,28.412-13.99,41.856-8.821,9.883,3.8,16.543,11.478,17.814,20.539,1.441,10.282-4.255,20.835-16.039,29.714-7.349,5.541-7.045,9.115-6.823,11.725.111,1.308.226,2.661-.78,3.757C159.231,173.185,155.357,173.707,144.229,173.707Zm7.729-53.1c4.146,0,7.653,1.472,9.909,4.294,2.859,3.576,3.034,8.586.455,13.071-2.48,4.31-5.972,6.8-9.349,9.2-3.023,2.154-5.881,4.19-7.946,7.436-1.82,2.858-1.434,5.435-.4,12.32.2,1.306.414,2.756.644,4.38,6.329-.019,12.649-.239,13.771-1.461.282-.308.248-.875.158-1.935-.238-2.805-.638-7.5,7.768-13.839,11.059-8.332,16.424-18.088,15.109-27.471-1.148-8.186-7.242-15.154-16.3-18.636-12.339-4.745-26.713-1.843-38.641,7.75q.822,1.267,1.527,2.361c2.888,4.476,4.48,6.942,5.606,7.712.683.467,1.188.28,3.46-.875a46.645,46.645,0,0,1,7.952-3.3A21.346,21.346,0,0,1,151.958,120.606Z" transform="translate(-123.965 -103.336)" fill="#003359"/>
        </g>
      </g>
      <g id="Group_287" data-name="Group 287" transform="translate(21.84 81.463)" style="mix-blend-mode: multiply;isolation: isolate">
        <g id="Group_286" data-name="Group 286">
          <path id="Path_40" data-name="Path 40" d="M148.52,190.481c-5.97,0-12.014-4.021-12.014-11.706,0-7.665,6.044-11.675,12.014-11.675,6,0,12.081,4.011,12.081,11.675C160.6,186.46,154.523,190.481,148.52,190.481Zm0-20.988c-4.633,0-9.62,2.9-9.62,9.281,0,6.4,4.987,9.313,9.62,9.313,4.665,0,9.687-2.914,9.687-9.313C158.207,172.4,153.185,169.494,148.52,169.494Z" transform="translate(-136.506 -167.1)" fill="#003359"/>
        </g>
      </g>
      <g id="Group_292" data-name="Group 292" style="mix-blend-mode: multiply;isolation: isolate">
        <g id="Group_288" data-name="Group 288" transform="translate(19.068 42.01)">
          <path id="Path_41" data-name="Path 41" d="M142.216,172.813h-5.555l-.754-5.5c-.27-1.978-.529-3.707-.758-5.235-1.162-7.724-1.855-12.339,1.483-17.585,2.857-4.491,6.619-7.17,9.937-9.535l1.143-.819,1.4,1.941-1.151.825c-3.144,2.24-6.7,4.777-9.309,8.872-2.858,4.491-2.286,8.293-1.148,15.867.242,1.617.5,3.356.774,5.345l.469,3.434h3.467c11.1,0,16.141-.436,18.62-3.135,1.831-1.994,1.632-4.327,1.5-5.87-.212-2.5.047-4.9,5.371-9l1.461,1.9c-4.724,3.644-4.584,5.3-4.449,6.9A9.388,9.388,0,0,1,162.6,168.9C159.551,172.223,154.608,172.813,142.216,172.813Z" transform="translate(-134.19 -134.136)" fill="#003359"/>
        </g>
        <g id="Group_289" data-name="Group 289" transform="translate(38.216 28.913)">
          <path id="Path_42" data-name="Path 42" d="M153.556,129.414l-2.307-.634a4.525,4.525,0,0,0,.169-1.187,3.04,3.04,0,0,0-.39-1.543,2.925,2.925,0,0,0-.838-.911l1.393-1.946a5.318,5.318,0,0,1,1.516,1.656,5.406,5.406,0,0,1,.712,2.743A6.837,6.837,0,0,1,153.556,129.414Z" transform="translate(-150.189 -123.193)" fill="#003359"/>
        </g>
        <g id="Group_290" data-name="Group 290">
          <path id="Path_43" data-name="Path 43" d="M136.063,134.442c-5.268,0-7.576-3.576-12.633-11.413l-5.173-7.967,4.323-3.623c10.568-8.853,22.873-13.165,35.209-12.294l-.169,2.388c-11.723-.823-23.415,3.289-33.5,11.741l-2.7,2.261,4.021,6.2c4.846,7.509,6.658,10.318,10.622,10.318a11.256,11.256,0,0,0,5.13-1.677,41.507,41.507,0,0,1,7.138-2.969,17.7,17.7,0,0,1,3.412-.717l.242,2.382a15.212,15.212,0,0,0-2.945.622,39.42,39.42,0,0,0-6.762,2.816A13.409,13.409,0,0,1,136.063,134.442Z" transform="translate(-118.258 -99.035)" fill="#003359"/>
        </g>
        <g id="Group_291" data-name="Group 291" transform="translate(66.501 25.072)">
          <path id="Path_44" data-name="Path 44" d="M175.912,141.246l-2.09-1.167a28.335,28.335,0,0,0,3.833-13.88,25.087,25.087,0,0,0-.651-5.677l2.334-.54a27.631,27.631,0,0,1,.711,6.216A30.687,30.687,0,0,1,175.912,141.246Z" transform="translate(-173.822 -119.983)" fill="#003359"/>
        </g>
      </g>
      <g id="Group_294" data-name="Group 294" transform="translate(16.672 76.294)" style="mix-blend-mode: multiply;isolation: isolate">
        <g id="Group_293" data-name="Group 293">
          <path id="Path_45" data-name="Path 45" d="M149.37,196.5c-8.538,0-17.182-5.8-17.182-16.875,0-11.059,8.644-16.844,17.182-16.844,8.362,0,17.25,5.9,17.25,16.844a16.735,16.735,0,0,1-2.379,8.852L162.2,187.23a14.372,14.372,0,0,0,2.029-7.6c0-9.387-7.655-14.451-14.856-14.451-7.35,0-14.788,4.963-14.788,14.451,0,9.507,7.438,14.482,14.788,14.482Z" transform="translate(-132.188 -162.781)" fill="#003359"/>
        </g>
      </g>
    </g>
    <g id="Group_305" data-name="Group 305" transform="translate(74.398 12.549)" style="mix-blend-mode: normal;isolation: isolate">
      <g id="Group_296" data-name="Group 296" transform="translate(11.687 4.481)" style="mix-blend-mode: multiply;isolation: isolate">
        <path id="Path_46" data-name="Path 46" d="M111.751,200.321h-1.669l-.226-1.654c-.767-5.6-1.5-10.486-2.145-14.8-2.965-19.732-4.193-27.9,1.845-37.385,6.215-9.766,14.841-15.914,23.185-21.858,8.815-6.28,17.929-12.775,24.169-23.622,6-10.417,5.69-21.93-.8-30.044-7.754-9.695-22.275-12.421-38.84-7.29A123.6,123.6,0,0,0,96.256,72.4c-13.794,7.014-14.8,5.456-31.608-20.584-1.738-2.692-3.653-5.663-5.781-8.934l-.925-1.42,1.3-1.088c34.644-29.027,77.08-38,113.523-23.986,26.656,10.249,44.612,30.918,48.028,55.29,3.887,27.71-11.561,56.219-43.494,80.279-20.778,15.669-19.871,26.339-19.269,33.4.293,3.447.572,6.7-1.786,9.268C152.281,198.937,141.472,200.321,111.751,200.321ZM132.966,57.3c10.962,0,20.206,3.862,26.131,11.27,7.492,9.368,7.924,22.527,1.128,34.338-6.655,11.572-16.115,18.313-25.265,24.831-8.416,6-16.363,11.658-22.179,20.8-5.269,8.28-4.187,15.491-1.29,34.764.585,3.892,1.241,8.257,1.925,13.191,25.861-.052,37.124-1.315,40.01-4.458,1.166-1.268,1.073-3.053.792-6.359-.673-7.9-1.688-19.837,20.778-36.778,30.776-23.186,45.694-50.424,42.01-76.694C213.782,49.23,196.731,29.7,171.39,19.955,136.715,6.626,96.315,14.957,63,42.224c1.765,2.717,3.376,5.217,4.862,7.517C75.887,62.177,80.307,69.029,83.632,71.3c2.579,1.767,4.674.849,10.892-2.311a126.887,126.887,0,0,1,21.615-8.97A57.169,57.169,0,0,1,132.966,57.3Z" transform="translate(-57.941 -9.893)" fill="#8e8e8e"/>
      </g>
      <g id="Group_297" data-name="Group 297" transform="translate(52.451 213.974)" style="mix-blend-mode: multiply;isolation: isolate">
        <path id="Path_47" data-name="Path 47" d="M110.865,180.907c-15.22,0-31.6-9.626-31.6-30.761,0-21.076,16.382-30.675,31.6-30.675,15.8,0,31.788,10.538,31.788,30.675C142.655,170.34,126.664,180.907,110.865,180.907Zm0-57.612c-13.381,0-27.781,8.4-27.781,26.851,0,18.508,14.4,26.937,27.779,26.937,13.471,0,27.966-8.429,27.966-26.937C138.831,131.7,124.336,123.295,110.867,123.295Z" transform="translate(-79.263 -119.471)" fill="#8e8e8e"/>
      </g>
      <g id="Group_302" data-name="Group 302" transform="translate(0)" style="mix-blend-mode: multiply;isolation: isolate">
        <g id="Group_298" data-name="Group 298" transform="translate(50.155 135.444)">
          <path id="Path_48" data-name="Path 48" d="M93.4,146.7H84.019l-1.271-9.3c-.759-5.558-1.487-10.4-2.132-14.677-3.114-20.753-4.682-31.17,3.132-43.448.189-.3.379-.591.572-.883l3.193,2.1-.535.828C79.928,92.4,81.423,102.346,84.4,122.156c.644,4.288,1.377,9.154,2.137,14.731l.82,5.994H93.4c32.164,0,42.974-1.642,48.189-7.32a11.988,11.988,0,0,0,3.021-6.062l3.757.705a15.71,15.71,0,0,1-3.961,7.944C138.238,144.865,127.276,146.7,93.4,146.7Z" transform="translate(-78.062 -78.395)" fill="#8e8e8e"/>
        </g>
        <g id="Group_299" data-name="Group 299" transform="translate(82.575 60.728)">
          <path id="Path_49" data-name="Path 49" d="M122.248,61.537l-3.8-.449a18.039,18.039,0,0,0,.126-2.082,14.959,14.959,0,0,0-1.983-7.594c-3.5-6.049-11.391-9.087-21.185-8.087l-.388-3.8c11.347-1.166,20.607,2.587,24.88,9.974a18.731,18.731,0,0,1,2.5,9.509A21.517,21.517,0,0,1,122.248,61.537Z" transform="translate(-95.02 -39.313)" fill="#8e8e8e"/>
        </g>
        <g id="Group_300" data-name="Group 300">
          <path id="Path_50" data-name="Path 50" d="M91.825,87.006c-10.8,0-15.763-7.693-29.029-28.253-1.736-2.688-3.648-5.649-5.768-8.913l-5.2-7.989,7.3-6.122C75.353,22.14,92.97,12.659,111.494,7.549l1.015,3.686C94.517,16.2,77.383,25.426,61.59,38.66l-4.709,3.946,3.351,5.15c2.124,3.267,4.04,6.233,5.774,8.924,12.794,19.822,17.1,26.5,25.819,26.5a17.655,17.655,0,0,0,7.057-1.656l1.5,3.52A21.23,21.23,0,0,1,91.825,87.006Z" transform="translate(-51.828 -7.549)" fill="#8e8e8e"/>
        </g>
        <g id="Group_301" data-name="Group 301" transform="translate(158.256 60.01)">
          <path id="Path_51" data-name="Path 51" d="M137.523,109.459l-2.917-2.474c14.36-16.914,21.95-35.336,21.95-53.275a65.084,65.084,0,0,0-1.52-13.95l3.734-.822a68.8,68.8,0,0,1,1.61,14.773C160.379,72.567,152.476,91.845,137.523,109.459Z" transform="translate(-134.606 -38.938)" fill="#8e8e8e"/>
        </g>
      </g>
      <g id="Group_304" data-name="Group 304" transform="translate(43.605 221.304)" style="mix-blend-mode: multiply;isolation: isolate">
        <g id="Group_303" data-name="Group 303">
          <path id="Path_52" data-name="Path 52" d="M115.273,186.255h-.189c-20.1,0-40.448-13.6-40.448-39.605a42.608,42.608,0,0,1,2.1-13.494l3.627,1.208a38.805,38.805,0,0,0-1.9,12.285c0,23.49,18.424,35.781,36.625,35.781Zm36.235-21.039-3.411-1.73a36.849,36.849,0,0,0,3.8-16.835,35.147,35.147,0,0,0-6.426-21.1l3.1-2.243a38.886,38.886,0,0,1,7.152,23.345A40.647,40.647,0,0,1,151.508,165.216Z" transform="translate(-74.636 -123.305)" fill="#8e8e8e"/>
        </g>
      </g>
    </g>
    <g id="Group_315" data-name="Group 315" transform="translate(13.372 44.175)" style="mix-blend-mode: normal;isolation: isolate">
      <g id="Group_306" data-name="Group 306" transform="translate(6.574 4.953)" style="mix-blend-mode: multiply;isolation: isolate">
        <path id="Path_53" data-name="Path 53" d="M37.728,107.567H36.684l-.141-1.035c-.257-1.883-.5-3.526-.722-4.975-.991-6.6-1.445-9.608.7-12.98s5.1-5.485,7.959-7.519c3.056-2.178,5.944-4.236,7.985-7.787,1.9-3.31,1.819-6.951-.221-9.5-2.465-3.083-7.136-3.934-12.494-2.274a41.077,41.077,0,0,0-6.993,2.9c-5.1,2.591-5.691,1.67-11.365-7.127-.586-.908-1.233-1.909-1.948-3.011l-.579-.889.813-.681c11.831-9.912,26.341-12.97,38.809-8.174,9.174,3.527,15.354,10.655,16.534,19.072,1.338,9.545-3.942,19.336-14.872,27.57-6.757,5.1-6.48,8.374-6.275,10.767.1,1.23.213,2.5-.746,3.545C51.651,107.077,48.054,107.567,37.728,107.567Zm7.151-49.3a11.414,11.414,0,0,1,9.235,4.006c2.67,3.339,2.834,8.01.428,12.192-2.3,4-5.541,6.311-8.673,8.542-2.79,1.988-5.425,3.867-7.327,6.854-1.665,2.616-1.308,4.992-.354,11.34.177,1.186.375,2.5.582,3.971,5.809-.019,11.585-.221,12.6-1.323.235-.256.2-.794.122-1.722-.221-2.614-.595-6.99,7.219-12.882,10.2-7.687,15.154-16.682,13.943-25.328-1.058-7.54-6.675-13.959-15.024-17.169-11.363-4.37-24.6-1.708-35.593,7.1q.736,1.135,1.369,2.118c2.665,4.13,4.133,6.405,5.161,7.108.559.384.942.285,3.107-.816a43.388,43.388,0,0,1,7.373-3.058A19.815,19.815,0,0,1,44.88,58.267Z" transform="translate(-18.865 -42.289)" fill="#0087eb"/>
      </g>
      <g id="Group_311" data-name="Group 311" style="mix-blend-mode: multiply;isolation: isolate">
        <g id="Group_307" data-name="Group 307" transform="translate(17.728 37.285)">
          <path id="Path_54" data-name="Path 54" d="M35.894,107.225H30.508l-.729-5.337c-.251-1.835-.493-3.44-.7-4.857-1.083-7.193-1.731-11.5,1.415-16.443,2.674-4.2,6.178-6.7,9.27-8.9,1.141-.813,2.217-1.58,3.19-2.384l1.526,1.844c-1.039.859-2.151,1.65-3.326,2.488-2.914,2.077-6.218,4.43-8.639,8.237-2.665,4.187-2.134,7.716-1.077,14.745.223,1.484.464,3.1.718,4.945l.446,3.267h3.3c10.3,0,14.982-.407,17.3-2.933a6.742,6.742,0,0,0,1.416-5.509c-.2-2.409.053-4.564,5.255-8.487q.971-.731,1.885-1.478l1.515,1.854q-.95.777-1.959,1.536c-4.56,3.44-4.44,4.864-4.312,6.372a9.058,9.058,0,0,1-2.037,7.332C52.068,106.665,47.45,107.225,35.894,107.225Z" transform="translate(-28.184 -69.304)" fill="#0087eb"/>
        </g>
        <g id="Group_308" data-name="Group 308" transform="translate(36.256 28.415)">
          <path id="Path_55" data-name="Path 55" d="M46.113,66.367l-2.3-.681a3.886,3.886,0,0,0,.172-1.109,2.541,2.541,0,0,0-.324-1.288l1.951-1.4c.045.068.087.139.128.211a4.879,4.879,0,0,1,.639,2.473A6.35,6.35,0,0,1,46.113,66.367Z" transform="translate(-43.665 -61.893)" fill="#0087eb"/>
        </g>
        <g id="Group_309" data-name="Group 309">
          <path id="Path_56" data-name="Path 56" d="M30.216,71.47c-5.028,0-7.188-3.349-11.923-10.687l-.138-.213c-.546-.846-1.142-1.771-1.8-2.78L13.372,53.2l4.191-3.513c9.01-7.55,19.342-11.54,29.879-11.54a40.662,40.662,0,0,1,5.781.412l-.341,2.369a38.353,38.353,0,0,0-5.44-.387c-9.967,0-19.768,3.8-28.341,10.981l-2.566,2.151,1.825,2.807c.661,1.013,1.26,1.941,1.807,2.79l.136.213c4.8,7.443,6.348,9.59,9.912,9.59a10.48,10.48,0,0,0,4.792-1.563,38.391,38.391,0,0,1,6.587-2.74,12.966,12.966,0,0,1,6.239-.546l-.472,2.347a10.674,10.674,0,0,0-5.059.485,36.385,36.385,0,0,0-6.212,2.588A12.624,12.624,0,0,1,30.216,71.47Z" transform="translate(-13.372 -38.151)" fill="#0087eb"/>
        </g>
        <g id="Group_310" data-name="Group 310" transform="translate(62.644 23.39)">
          <path id="Path_57" data-name="Path 57" d="M67.852,76.249l-2.139-1.075a25.835,25.835,0,0,0,2.9-11.64,23.492,23.492,0,0,0-.61-5.3l2.33-.542a25.855,25.855,0,0,1,.674,5.839A28.2,28.2,0,0,1,67.852,76.249Z" transform="translate(-65.713 -57.694)" fill="#0087eb"/>
        </g>
      </g>
      <g id="Group_313" data-name="Group 313" transform="translate(15.513 78.307)" style="mix-blend-mode: multiply;isolation: isolate">
        <g id="Group_312" data-name="Group 312" transform="translate(0 0)">
          <path id="Path_58" data-name="Path 58" d="M42.512,135.337c-8.039,0-16.178-5.46-16.178-15.893,0-10.416,8.139-15.865,16.178-15.865,7.873,0,16.24,5.561,16.24,15.865a15.27,15.27,0,0,1-6.062,12.53l-1.44-1.913a12.725,12.725,0,0,0,5.108-10.617c0-8.75-7.134-13.472-13.846-13.472-6.85,0-13.784,4.627-13.784,13.472,0,8.861,6.934,13.5,13.784,13.5Z" transform="translate(-26.334 -103.579)" fill="#0087eb"/>
        </g>
      </g>
      <g id="Group_314" data-name="Group 314" transform="translate(20.488 83.282)" style="mix-blend-mode: multiply;isolation: isolate">
        <path id="Path_59" data-name="Path 59" d="M41.694,129.545c-5.568,0-11.2-3.751-11.2-10.919,0-7.15,5.636-10.89,11.2-10.89,5.6,0,11.265,3.74,11.265,10.89C52.958,125.794,47.29,129.545,41.694,129.545Zm0-19.415c-4.243,0-8.81,2.658-8.81,8.5,0,5.857,4.567,8.525,8.81,8.525,4.272,0,8.871-2.668,8.871-8.525a8.063,8.063,0,0,0-2.731-6.355A9.394,9.394,0,0,0,41.694,110.13Z" transform="translate(-30.49 -107.736)" fill="#0087eb"/>
      </g>
    </g>
  </g>
</svg>
