<svg xmlns="http://www.w3.org/2000/svg" width="785.649" height="112.211" viewBox="0 0 785.649 112.211">
  <g id="Group_501" data-name="Group 501" transform="translate(-458.131 -1018.945)">
    <path id="Path_2" data-name="Path 2" d="M574.667,890.667l35.39,35.39,35.39-35.39,35.39,35.39,35.39-35.39,35.39,35.39,35.39-35.39,35.39,35.39,35.39-35.39,35.39,35.39,35.39-35.39,35.39,35.39,35.39-35.39,35.39,35.39,35.39-35.39,35.39,35.39,35.39-35.39,35.39,35.39,35.39-35.39,35.39,35.39,35.39-35.39,35.39,35.39,35.39-35.39" transform="translate(-113 131.814)" fill="none" stroke="#2d80c1" stroke-linecap="round" stroke-linejoin="round" stroke-width="5"/>
    <path id="Path_3" data-name="Path 3" d="M574.667,890.667l35.39,35.39,35.39-35.39,35.39,35.39,35.39-35.39,35.39,35.39,35.39-35.39,35.39,35.39,35.39-35.39,35.39,35.39,35.39-35.39,35.39,35.39,35.39-35.39,35.39,35.39,35.39-35.39,35.39,35.39,35.39-35.39,35.39,35.39,35.39-35.39,35.39,35.39,35.39-35.39,35.39,35.39,35.39-35.39" transform="translate(-113 167.403)" fill="none" stroke="#2d80c1" stroke-linecap="round" stroke-linejoin="round" stroke-width="5" opacity="0.29"/>
    <path id="Path_4" data-name="Path 4" d="M574.667,890.667l35.39,35.39,35.39-35.39,35.39,35.39,35.39-35.39,35.39,35.39,35.39-35.39,35.39,35.39,35.39-35.39,35.39,35.39,35.39-35.39,35.39,35.39,35.39-35.39,35.39,35.39,35.39-35.39,35.39,35.39,35.39-35.39,35.39,35.39,35.39-35.39,35.39,35.39,35.39-35.39,35.39,35.39,35.39-35.39" transform="translate(-113 202.6)" fill="none" stroke="#2d80c1" stroke-linecap="round" stroke-linejoin="round" stroke-width="5" opacity="0.07"/>
  </g>
</svg>
