<svg xmlns="http://www.w3.org/2000/svg" width="29.974" height="30.025" viewBox="0 0 29.974 30.025">
  <path id="Icon_feather-phone-call" data-name="Icon feather-phone-call" d="M19.777,6.635a6.419,6.419,0,0,1,5.071,5.071M19.777,1.5A11.554,11.554,0,0,1,29.983,11.693M28.7,21.937v3.851a2.567,2.567,0,0,1-2.8,2.567,25.405,25.405,0,0,1-11.079-3.941,25.033,25.033,0,0,1-7.7-7.7A25.405,25.405,0,0,1,3.178,5.582a2.567,2.567,0,0,1,2.555-2.8H9.584a2.567,2.567,0,0,1,2.567,2.208,16.483,16.483,0,0,0,.9,3.607,2.567,2.567,0,0,1-.578,2.709l-1.63,1.63a20.54,20.54,0,0,0,7.7,7.7l1.63-1.63a2.567,2.567,0,0,1,2.709-.578,16.483,16.483,0,0,0,3.607.9A2.567,2.567,0,0,1,28.7,21.937Z" transform="translate(-1.667 0.156)" fill="none" stroke="#fff" stroke-linecap="round" stroke-linejoin="round" stroke-width="3"/>
</svg>
