<svg xmlns="http://www.w3.org/2000/svg" width="33.801" height="24.766" viewBox="0 0 33.801 24.766">
  <g id="Icon_zocial-email" data-name="Icon zocial-email" transform="translate(2.928 -1.068)" fill="none" stroke-linejoin="round">
    <path d="M.072,21.172V5.73q0-.027.08-.509L9.241,13,.179,21.708a2.272,2.272,0,0,1-.107-.536ZM1.278,4.148a1.155,1.155,0,0,1,.456-.08H26.211a1.518,1.518,0,0,1,.483.08l-9.115,7.8-1.206.965-2.386,1.957L11.6,12.915l-1.206-.965Zm.027,18.605,9.142-8.767,3.539,2.869,3.539-2.869,9.142,8.767a1.287,1.287,0,0,1-.456.08H1.734a1.214,1.214,0,0,1-.429-.08ZM18.731,13l9.061-7.775a1.6,1.6,0,0,1,.08.509V21.172a2.055,2.055,0,0,1-.08.536Z" stroke="none"/>
    <path d="M 26.21065139770508 22.83420562744141 C 26.37150192260742 22.83420562744141 26.52342224121094 22.80740547180176 26.66640090942383 22.7537841796875 L 17.52457237243652 13.98728466033936 L 13.98580169677734 16.8558349609375 L 10.44703197479248 13.98728466033936 L 1.305211663246155 22.7537841796875 C 1.44819164276123 22.80740547180176 1.591171622276306 22.83420562744141 1.734151601791382 22.83420562744141 L 26.21065139770508 22.83420562744141 M 27.79237174987793 21.7082347869873 C 27.84599113464355 21.51163482666016 27.87280082702637 21.33291435241699 27.87280082702637 21.17206573486328 L 27.87280082702637 5.730154991149902 C 27.87280082702637 5.551424980163574 27.84599113464355 5.381635189056396 27.79237174987793 5.220785140991211 L 18.73097229003906 12.99535465240479 L 27.79237174987793 21.7082347869873 M 0.1792316138744354 21.7082347869873 L 9.240632057189941 12.99535465240479 L 0.1524316221475601 5.220785140991211 C 0.09881161898374557 5.542485237121582 0.0720016211271286 5.71227502822876 0.0720016211271286 5.73014497756958 L 0.0720016211271286 21.17206573486328 C 0.0720016211271286 21.27929496765137 0.107741616666317 21.4580249786377 0.1792316138744354 21.7082347869873 M 13.98580169677734 14.87197494506836 L 16.37179183959961 12.91492557525635 L 17.57819175720215 11.94980525970459 L 26.69321250915527 4.148425102233887 C 26.53236198425293 4.094805240631104 26.37150192260742 4.068005084991455 26.21065139770508 4.068005084991455 L 1.734151601791382 4.068005084991455 C 1.555421590805054 4.068005084991455 1.403511643409729 4.094805240631104 1.278401613235474 4.148425102233887 L 10.39341163635254 11.94980525970459 L 11.59981155395508 12.91492557525635 L 13.98580169677734 14.87197494506836 M 26.21065139770508 25.83420562744141 L 1.734151601791382 25.83420562744141 C 1.230831623077393 25.83420562744141 0.7320916056632996 25.74287605285645 0.251801609992981 25.5627555847168 C -0.3699629306793213 25.32958221435547 -0.8865404725074768 24.90130996704102 -1.231032371520996 24.35616874694824 C -1.941125512123108 23.97794723510742 -2.479112386703491 23.32419013977051 -2.705338478088379 22.53241539001465 C -2.859328269958496 21.99345588684082 -2.927998304367065 21.57390594482422 -2.927998304367065 21.17206573486328 L -2.927998304367065 5.73014497756958 C -2.927998304367065 5.455035209655762 -2.902308464050293 5.300925254821777 -2.806748390197754 4.727555274963379 C -2.653741598129272 3.809583425521851 -2.085757970809937 3.02363657951355 -1.282841682434082 2.586332082748413 C -0.9631467461585999 2.062262058258057 -0.4851507544517517 1.640341401100159 0.09662161767482758 1.391005158424377 C 0.5966916084289551 1.176675081253052 1.147641658782959 1.068005084991455 1.734151601791382 1.068005084991455 L 26.21065139770508 1.068005084991455 C 26.69383239746094 1.068005084991455 27.17539215087891 1.146865129470825 27.64195251464844 1.302395105361938 C 28.33341026306152 1.532894730567932 28.90524673461914 2.002278804779053 29.26802825927734 2.608751058578491 C 29.90768623352051 2.970151424407959 30.40069961547852 3.558981895446777 30.63840103149414 4.272045135498047 C 30.79394149780273 4.738625049591064 30.87280082702637 5.229205131530762 30.87280082702637 5.730154991149902 L 30.87280082702637 21.17206573486328 C 30.87280082702637 21.5987548828125 30.81017112731934 22.04473495483398 30.6866512298584 22.49761581420898 C 30.46666717529297 23.30421257019043 29.92379760742188 23.97207641601562 29.20265197753906 24.35615730285645 C 28.8581600189209 24.90129852294922 28.34157562255859 25.32958221435547 27.71981239318848 25.5627555847168 C 27.23952102661133 25.74287605285645 26.73176193237305 25.83420562744141 26.21065139770508 25.83420562744141 Z" stroke="none" fill="#fff"/>
  </g>
</svg>
